<svg width="19" height="12" viewBox="0 0 19 12" fill="none" xmlns="http://www.w3.org/2000/svg">
<path d="M12.3501 5.64489C12.3501 6.28652 12.0499 6.90186 11.5154 7.35555C10.9808 7.80925 10.2559 8.06413 9.49999 8.06413C8.74408 8.06413 8.01913 7.80925 7.48463 7.35555C6.95012 6.90186 6.64983 6.28652 6.64983 5.64489C6.64983 5.00327 6.95012 4.38793 7.48463 3.93423C8.01913 3.48054 8.74408 3.22565 9.49999 3.22565C10.2559 3.22565 10.9808 3.48054 11.5154 3.93423C12.0499 4.38793 12.3501 5.00327 12.3501 5.64489Z" fill="white"/>
<path d="M18.8998 5.28443C16.8496 1.80314 13.209 0 9.50001 0C5.79196 0 2.15041 1.80314 0.100198 5.28443C0.0343039 5.39636 0 5.51977 0 5.64489C0 5.77002 0.0343039 5.89343 0.100198 6.00536C2.15041 9.48664 5.79101 11.2898 9.50001 11.2898C13.2081 11.2898 16.8496 9.48664 18.8998 6.00536C18.9657 5.89343 19 5.77002 19 5.64489C19 5.51977 18.9657 5.39636 18.8998 5.28443ZM9.50001 9.67696C6.67931 9.67696 3.7978 8.37057 2.0231 5.64489C3.7978 2.91922 6.67836 1.61283 9.50001 1.61283C12.3207 1.61283 15.2022 2.91922 16.9769 5.64489C15.2022 8.37057 12.3207 9.67696 9.50001 9.67696Z" fill="white"/>
</svg>
