<svg width="28" height="30" viewBox="0 0 28 30" fill="none" xmlns="http://www.w3.org/2000/svg">
<path d="M14 2.6513C17.7382 2.6513 18.181 2.66631 19.6572 2.73711C21.0222 2.80253 21.7635 3.04224 22.2568 3.24376C22.9103 3.51069 23.3767 3.82955 23.8666 4.34444C24.3565 4.85938 24.6599 5.34956 24.9138 6.03641C25.1056 6.55492 25.3336 7.33405 25.3959 8.76873C25.4632 10.3203 25.4775 10.7858 25.4775 14.7147C25.4775 18.6437 25.4632 19.1092 25.3959 20.6608C25.3336 22.0954 25.1056 22.8746 24.9138 23.3931C24.6599 24.0799 24.3565 24.5701 23.8666 25.085C23.3767 25.5999 22.9103 25.9188 22.2568 26.1857C21.7635 26.3873 21.0222 26.627 19.6572 26.6924C18.1812 26.7632 17.7384 26.7782 14 26.7782C10.2616 26.7782 9.81889 26.7632 8.34281 26.6924C6.97782 26.627 6.23653 26.3873 5.74321 26.1857C5.08972 25.9188 4.62335 25.5999 4.13347 25.085C3.6436 24.5701 3.34017 24.0799 3.0862 23.3931C2.89447 22.8746 2.6664 22.0954 2.60416 20.6608C2.5368 19.1092 2.52252 18.6437 2.52252 14.7147C2.52252 10.7858 2.5368 10.3203 2.60416 8.76873C2.6664 7.33405 2.89447 6.55492 3.0862 6.03641C3.34017 5.34956 3.64354 4.85938 4.13347 4.3445C4.62335 3.82955 5.08972 3.51069 5.74321 3.24376C6.23653 3.04224 6.97782 2.80253 8.34281 2.73711C9.81905 2.66631 10.2619 2.6513 14 2.6513ZM14 0C10.1978 0 9.72108 0.016939 8.22783 0.08855C6.73769 0.159986 5.71998 0.408755 4.82947 0.772476C3.90885 1.14852 3.1281 1.65167 2.34974 2.4697C1.57144 3.2878 1.09273 4.1084 0.73501 5.07603C0.388901 6.012 0.152215 7.08166 0.0842489 8.64788C0.0161162 10.2174 0 10.7185 0 14.7147C0 18.711 0.0161162 19.2121 0.0842489 20.7816C0.152215 22.3478 0.388901 23.4175 0.73501 24.3535C1.09273 25.3211 1.57144 26.1417 2.34974 26.9598C3.1281 27.7778 3.90885 28.281 4.82947 28.657C5.71998 29.0207 6.73769 29.2695 8.22783 29.3409C9.72108 29.4126 10.1978 29.4295 14 29.4295C17.8022 29.4295 18.279 29.4126 19.7722 29.3409C21.2623 29.2695 22.2801 29.0207 23.1706 28.657C24.0912 28.281 24.8719 27.7778 25.6503 26.9598C26.4286 26.1417 26.9073 25.3211 27.2651 24.3535C27.6111 23.4175 27.8478 22.3478 27.9158 20.7816C27.9839 19.2121 28 18.711 28 14.7147C28 10.7185 27.9839 10.2174 27.9158 8.64788C27.8478 7.08166 27.6111 6.012 27.2651 5.07603C26.9073 4.1084 26.4286 3.2878 25.6503 2.4697C24.8719 1.65167 24.0912 1.14852 23.1706 0.772476C22.2801 0.408755 21.2623 0.159986 19.7722 0.08855C18.279 0.016939 17.8022 0 14 0Z" fill="white"/>
<path d="M14.0064 7.16578C10.0359 7.16578 6.81721 10.5488 6.81721 14.722C6.81721 18.8952 10.0359 22.2782 14.0064 22.2782C17.9769 22.2782 21.1956 18.8952 21.1956 14.722C21.1956 10.5488 17.9769 7.16578 14.0064 7.16578ZM14.0064 19.6269C11.4291 19.6269 9.33973 17.4309 9.33973 14.722C9.33973 12.0131 11.4291 9.81708 14.0064 9.81708C16.5838 9.81708 18.6731 12.0131 18.6731 14.722C18.6731 17.4309 16.5838 19.6269 14.0064 19.6269Z" fill="white"/>
<path d="M23.1592 6.86257C23.1592 7.83773 22.4071 8.62831 21.4792 8.62831C20.5514 8.62831 19.7992 7.83773 19.7992 6.86257C19.7992 5.88734 20.5514 5.09676 21.4792 5.09676C22.4071 5.09676 23.1592 5.88734 23.1592 6.86257Z" fill="white"/>
</svg>
