<svg width="24" height="29" viewBox="0 0 24 29" fill="none" xmlns="http://www.w3.org/2000/svg">
<path d="M12 2.9C10.5855 2.9 9.22896 3.51107 8.22876 4.59878C7.22857 5.68649 6.66667 7.16174 6.66667 8.7C6.66667 10.2383 7.22857 11.7135 8.22876 12.8012C9.22896 13.8889 10.5855 14.5 12 14.5C13.4145 14.5 14.771 13.8889 15.7712 12.8012C16.7714 11.7135 17.3333 10.2383 17.3333 8.7C17.3333 7.16174 16.7714 5.68649 15.7712 4.59878C14.771 3.51107 13.4145 2.9 12 2.9ZM4 8.7C4 6.39262 4.84285 4.17974 6.34315 2.54817C7.84344 0.916604 9.87827 0 12 0C14.1217 0 16.1566 0.916604 17.6569 2.54817C19.1571 4.17974 20 6.39262 20 8.7C20 11.0074 19.1571 13.2203 17.6569 14.8518C16.1566 16.4834 14.1217 17.4 12 17.4C9.87827 17.4 7.84344 16.4834 6.34315 14.8518C4.84285 13.2203 4 11.0074 4 8.7ZM6.66667 23.2C5.6058 23.2 4.58839 23.6583 3.83824 24.4741C3.08809 25.2899 2.66667 26.3963 2.66667 27.55C2.66667 27.9346 2.52619 28.3034 2.27614 28.5753C2.02609 28.8472 1.68696 29 1.33333 29C0.979711 29 0.640573 28.8472 0.390524 28.5753C0.140476 28.3034 0 27.9346 0 27.55C0 25.6272 0.702379 23.7831 1.95262 22.4235C3.20286 21.0638 4.89856 20.3 6.66667 20.3H17.3333C19.1014 20.3 20.7971 21.0638 22.0474 22.4235C23.2976 23.7831 24 25.6272 24 27.55C24 27.9346 23.8595 28.3034 23.6095 28.5753C23.3594 28.8472 23.0203 29 22.6667 29C22.313 29 21.9739 28.8472 21.7239 28.5753C21.4738 28.3034 21.3333 27.9346 21.3333 27.55C21.3333 26.3963 20.9119 25.2899 20.1618 24.4741C19.4116 23.6583 18.3942 23.2 17.3333 23.2H6.66667Z" fill="black"/>
</svg>
