<svg width="12" height="7" viewBox="0 0 12 7" fill="none" xmlns="http://www.w3.org/2000/svg">
<path d="M0.250744 0.266725C0.411343 0.102935 0.629134 0.010923 0.856221 0.010923C1.08331 0.010923 1.3011 0.102935 1.4617 0.266725L5.99465 4.89112L10.5276 0.266725C10.6066 0.18328 10.7011 0.11672 10.8056 0.0709314C10.9101 0.0251427 11.0224 0.00104105 11.1362 3.29865e-05C11.2499 -0.000975081 11.3626 0.0211312 11.4679 0.0650607C11.5731 0.10899 11.6688 0.173864 11.7492 0.255896C11.8296 0.337928 11.8932 0.435476 11.9362 0.542848C11.9793 0.650221 12.001 0.765266 12 0.881273C11.999 0.99728 11.9754 1.11192 11.9305 1.21852C11.8856 1.32511 11.8203 1.42152 11.7386 1.50211L6.60012 6.7442C6.43952 6.90799 6.22173 7 5.99465 7C5.76756 7 5.54977 6.90799 5.38917 6.7442L0.250744 1.50211C0.0901927 1.33827 0 1.11609 0 0.884418C0 0.652749 0.0901927 0.430565 0.250744 0.266725Z" fill="white" fill-opacity="0.71"/>
</svg>
