<svg width="31" height="29" viewBox="0 0 31 29" fill="none" xmlns="http://www.w3.org/2000/svg">
<path d="M15.5 2.51704C13.6965 0.802926 11.333 -0.097206 8.91269 0.00833494C6.49239 0.113876 4.20659 1.21675 2.54205 3.0821C0.877519 4.94744 -0.0342253 7.42786 0.000983053 9.99515C0.0361914 12.5624 1.01557 15.0137 2.73056 16.827L13.3095 28.0385C13.8905 28.6541 14.6785 29 15.5 29C16.3215 29 17.1095 28.6541 17.6905 28.0385L28.2694 16.827C29.9844 15.0137 30.9638 12.5624 30.999 9.99515C31.0342 7.42786 30.1225 4.94744 28.4579 3.0821C26.7934 1.21675 24.5076 0.113876 22.0873 0.00833494C19.667 -0.097206 17.3035 0.802926 15.5 2.51704ZM13.6844 5.21648L14.4048 5.97836C14.6953 6.28618 15.0892 6.45911 15.5 6.45911C15.9108 6.45911 16.3047 6.28618 16.5952 5.97836L17.3156 5.21648C17.8872 4.58917 18.5709 4.08881 19.3269 3.74459C20.0829 3.40037 20.896 3.21918 21.7188 3.2116C22.5416 3.20402 23.3575 3.3702 24.1191 3.70045C24.8806 4.03069 25.5724 4.51838 26.1542 5.13506C26.736 5.75175 27.1962 6.48507 27.5077 7.29225C27.8193 8.09943 27.9761 8.9643 27.9689 9.83639C27.9618 10.7085 27.7908 11.5703 27.4661 12.3716C27.1413 13.173 26.6693 13.8977 26.0774 14.5036L15.5 25.7167L4.92257 14.5036C3.79383 13.2648 3.16925 11.6058 3.18337 9.88366C3.19749 8.16156 3.84917 6.51424 4.99805 5.29648C6.14693 4.07873 7.70109 3.38798 9.3258 3.37302C10.9505 3.35805 12.5157 4.02007 13.6844 5.21648Z" fill="#0D0D0D"/>
<path d="M15.5 2.51704C13.6965 0.802926 11.333 -0.097206 8.91269 0.00833494C6.49239 0.113876 4.20659 1.21675 2.54205 3.0821C0.877519 4.94744 -0.0342253 7.42786 0.000983053 9.99515C0.0361914 12.5624 1.01557 15.0137 2.73056 16.827L13.3095 28.0385C13.8905 28.6541 14.6785 29 15.5 29C16.3215 29 17.1095 28.6541 17.6905 28.0385L28.2694 16.827C29.9844 15.0137 30.9638 12.5624 30.999 9.99515C31.0342 7.42786 30.1225 4.94744 28.4579 3.0821C26.7934 1.21675 24.5076 0.113876 22.0873 0.00833494C19.667 -0.097206 17.3035 0.802926 15.5 2.51704ZM13.6844 5.21648L14.4048 5.97836C14.6953 6.28618 15.0892 6.45911 15.5 6.45911C15.9108 6.45911 16.3047 6.28618 16.5952 5.97836L17.3156 5.21648C17.8872 4.58917 18.5709 4.08881 19.3269 3.74459C20.0829 3.40037 20.896 3.21918 21.7188 3.2116C22.5416 3.20402 23.3575 3.3702 24.1191 3.70045C24.8806 4.03069 25.5724 4.51838 26.1542 5.13506C26.736 5.75175 27.1962 6.48507 27.5077 7.29225C27.8193 8.09943 27.9761 8.9643 27.9689 9.83639C27.9618 10.7085 27.7908 11.5703 27.4661 12.3716C27.1413 13.173 26.6693 13.8977 26.0774 14.5036L15.5 25.7167L4.92257 14.5036C3.79383 13.2648 3.16925 11.6058 3.18337 9.88366C3.19749 8.16156 3.84917 6.51424 4.99805 5.29648C6.14693 4.07873 7.70109 3.38798 9.3258 3.37302C10.9505 3.35805 12.5157 4.02007 13.6844 5.21648Z" fill="black"/>
</svg>
