<svg width="38" height="27" viewBox="0 0 38 27" fill="none" xmlns="http://www.w3.org/2000/svg">
<path fill-rule="evenodd" clip-rule="evenodd" d="M35.9281 1.99985C36.5182 2.57902 36.9434 3.29982 37.1614 4.09046C38.4165 9.04926 38.1264 16.8809 37.1857 22.0311C36.9678 22.8217 36.5426 23.5425 35.9525 24.1217C35.3624 24.7009 34.6281 25.1182 33.8226 25.3322C30.8737 26.1216 19.0051 26.1216 19.0051 26.1216C19.0051 26.1216 7.13656 26.1216 4.18769 25.3322C3.38218 25.1182 2.64782 24.7009 2.05775 24.1217C1.46769 23.5425 1.0425 22.8217 0.824526 22.0311C-0.437881 17.0938 -0.0918144 9.25737 0.800157 4.11439C1.01812 3.32375 1.44332 2.60294 2.03339 2.02377C2.62345 1.44459 3.35781 1.02725 4.16332 0.813315C7.11219 0.023915 18.9808 0 18.9808 0C18.9808 0 30.8493 0 33.7982 0.789385C34.6037 1.00334 35.3381 1.42068 35.9281 1.99985ZM25.0491 13.0608L15.2033 18.6582V7.46329L25.0491 13.0608Z" fill="white"/>
</svg>
