<svg width="18" height="15" viewBox="0 0 18 15" fill="none" xmlns="http://www.w3.org/2000/svg">
<path d="M9 0C9.29837 0 9.58452 0.0987722 9.7955 0.274588C10.0065 0.450403 10.125 0.68886 10.125 0.9375V6.5625H16.875C17.1734 6.5625 17.4595 6.66127 17.6705 6.83709C17.8815 7.0129 18 7.25136 18 7.5C18 7.74864 17.8815 7.9871 17.6705 8.16291C17.4595 8.33873 17.1734 8.4375 16.875 8.4375H10.125V14.0625C10.125 14.3111 10.0065 14.5496 9.7955 14.7254C9.58452 14.9012 9.29837 15 9 15C8.70163 15 8.41548 14.9012 8.2045 14.7254C7.99353 14.5496 7.875 14.3111 7.875 14.0625V8.4375H1.125C0.826631 8.4375 0.540484 8.33873 0.329505 8.16291C0.118527 7.9871 0 7.74864 0 7.5C0 7.25136 0.118527 7.0129 0.329505 6.83709C0.540484 6.66127 0.826631 6.5625 1.125 6.5625H7.875V0.9375C7.875 0.68886 7.99353 0.450403 8.2045 0.274588C8.41548 0.0987722 8.70163 0 9 0Z" fill="white"/>
</svg>
