<svg width="29" height="26" viewBox="0 0 29 26" fill="none" xmlns="http://www.w3.org/2000/svg">
<path fill-rule="evenodd" clip-rule="evenodd" d="M29 3.03767C27.9338 3.55342 26.7865 3.90075 25.5831 4.05758C26.8116 3.25554 27.755 1.98616 28.1987 0.473645C27.0504 1.21675 25.7754 1.7546 24.4212 2.04616C23.3357 0.787309 21.7882 0 20.0783 0C16.7928 0 14.1288 2.90083 14.1288 6.47845C14.1288 6.98578 14.182 7.48048 14.2835 7.95518C9.33835 7.68573 4.9548 5.10593 2.0202 1.18622C1.5079 2.14299 1.21502 3.25555 1.21502 4.44283C1.21502 6.69003 2.26378 8.67304 3.86158 9.83505C2.88531 9.80137 1.96897 9.50981 1.16572 9.02458V9.10563C1.16572 12.2454 3.21782 14.8631 5.93784 15.4599C5.43907 15.6072 4.91324 15.6872 4.37098 15.6872C3.98723 15.6872 3.61413 15.6462 3.25068 15.5704C4.00753 18.1439 6.20559 20.0174 8.80865 20.0701C6.77298 21.8068 4.20762 22.8435 1.41994 22.8435C0.938569 22.8435 0.464936 22.813 0 22.752C2.63303 24.5897 5.75998 25.6633 9.11989 25.6633C20.0628 25.6633 26.047 15.7914 26.047 7.23103C26.047 6.94999 26.0422 6.67003 26.0296 6.3932C27.1934 5.47748 28.2026 4.33651 29 3.03767Z" fill="white"/>
</svg>
