<svg width="30" height="30" viewBox="0 0 30 30" fill="none" xmlns="http://www.w3.org/2000/svg">
<path d="M11.6078 3.0003C9.29886 3.0003 7.0845 3.94915 5.45183 5.63811C3.81917 7.32707 2.90195 9.61779 2.90195 12.0063C2.90195 14.3949 3.81917 16.6856 5.45183 18.3746C7.0845 20.0635 9.29886 21.0124 11.6078 21.0124C13.9167 21.0124 16.1311 20.0635 17.7638 18.3746C19.3964 16.6856 20.3136 14.3949 20.3136 12.0063C20.3136 9.61779 19.3964 7.32707 17.7638 5.63811C16.1311 3.94915 13.9167 3.0003 11.6078 3.0003ZM7.17017e-08 12.0063C0.000264551 10.0954 0.441413 8.21202 1.28678 6.51287C2.13215 4.81372 3.35732 3.34782 4.86048 2.23701C6.36364 1.1262 8.10137 0.402554 9.92924 0.126214C11.7571 -0.150126 13.6224 0.0288206 15.3699 0.648183C17.1175 1.26754 18.697 2.30943 19.977 3.68726C21.2571 5.06509 22.2008 6.73906 22.7297 8.57005C23.2586 10.401 23.3574 12.3362 23.0179 14.2146C22.6785 16.0931 21.9105 17.8606 20.778 19.3703L28.5944 27.4562C28.8587 27.7393 29.0049 28.1185 29.0016 28.512C28.9983 28.9056 28.8457 29.2821 28.5767 29.5604C28.3077 29.8387 27.9437 29.9965 27.5633 29.9999C27.1829 30.0034 26.8163 29.8521 26.5427 29.5786L18.7263 21.4927C17.0104 22.8708 14.9552 23.7231 12.7944 23.9528C10.6335 24.1825 8.45365 23.7804 6.50276 22.7921C4.55186 21.8038 2.90817 20.2691 1.75862 18.3624C0.60906 16.4556 -0.000241327 14.2535 7.17017e-08 12.0063Z" fill="black"/>
</svg>
